<?xml version="1.0" encoding="UTF-8"?>
<svg id="Calque_1" data-name="Calque 1" xmlns="http://www.w3.org/2000/svg" viewBox="0 0 98.72 86.48">
  <defs>
    <style>
      .cls-1 {
        fill: #4b4d4f;
      }
    </style>
  </defs>
  <path class="cls-1" d="m81.57,86.48c1.76,0,3.2-1.43,3.2-3.19v-34.16h8.4c3.06,0,5.55-2.48,5.55-5.55,0-1.75-.81-3.31-2.08-4.33l-10.85-9.41v-15.66c0-1.83-1.48-3.32-3.31-3.32h-6.86c-1.83,0-3.32,1.49-3.32,3.32v3.95L52.99,1.36c-2.09-1.81-5.19-1.81-7.27,0L1.91,39.39c-1.75,1.52-2.37,3.96-1.56,6.14.81,2.17,2.89,3.6,5.2,3.6h8.4v34.16c0,1.77,1.43,3.19,3.2,3.19h18.88v-24.83c0-3.51,2.84-6.36,6.36-6.36h13.97c3.51,0,6.36,2.85,6.36,6.36v24.83h18.87Z"/>
</svg>