<svg id="Calque_1" data-name="Calque 1" xmlns="http://www.w3.org/2000/svg" viewBox="0 0 679.47 771.25"><defs><style>.cls-1{fill:#036;}</style></defs><path class="cls-1" d="M666.36,507l-11.27-19.78,24.38-13.89V253.72L223.35,0,16.43,121.83,20,119.72l17.09-1.64L37,140.86l-22.77-.08.06-17.7L0,131.5V646.33L230.92,771.25l-7.57-514.83L450.48,385.13,234.7,510.05l37.21,23.23-22.2-13.91,16.76-8.74,11.68,19.55-6.22,3.11L450.48,644.76l229-130.92V500.51Zm-631,138.43-22.78-.08.08-22.77,22.78.08Zm.15-45.55-22.77-.08L12.77,577l22.78.08Zm.16-45.55-22.78-.07.08-22.78,22.77.08Zm.16-49L13,505.16l.07-22.77,22.78.08ZM36,459.69l-22.78-.07.08-22.78,22.77.08Zm.15-45.55-22.77-.07.07-22.78,22.78.08Zm.15-45.54-22.77-.08.08-22.77,22.77.07Zm.16-45.55L13.63,323l.08-22.77,22.77.07Zm.15-45.55-22.77-.08.07-22.77,22.78.08ZM36.72,232l-22.78-.08L14,209.1l22.77.08Zm.15-45.55-22.77-.07.07-22.78,22.78.08ZM179.79,34.85l22.76-.5.5,22.77-22.76.5Zm1,45.54,22.76-.5.5,22.77-22.77.5Zm1,45.54,22.77-.5.5,22.76-22.77.5Zm1,45.53,22.77-.5.5,22.77-22.77.5Zm1,45.54,22.77-.5.5,22.77-22.77.5Zm1,45.54,22.77-.5.5,22.77-22.77.5Zm1,45.54,22.77-.5.5,22.76-22.77.5Zm1,45.53,22.77-.5.5,22.77-22.77.5Zm1,45.54,22.77-.5.5,22.77-22.77.5Zm1,45.54,22.77-.5.5,22.77-22.77.5Zm1,45.54,22.77-.5.5,22.76-22.77.5Zm1.08,49,22.77-.5.5,22.76-22.77.5Zm1,45.53,22.77-.5.5,22.77-22.77.5Zm1,45.54,22.77-.5.5,22.77-22.77.5Zm1,45.54,22.77-.5.5,22.77-22.77.5Zm1.5,68.3-.5-22.76,22.77-.5.5,22.76ZM617.85,229.86l20,10.93-10.93,20-20-10.93Zm-40-21.86,20,10.93-10.93,20L567,228Zm-39.95-21.87,20,10.94-10.94,20-20-10.94Zm-40-21.86,20,10.93-10.93,20-20-10.93Zm-40-21.86,20,10.93-10.93,20-20-10.93ZM249.36,257.74l-19.81-11.23,11.23-19.81,19.81,11.23ZM244.23,51.38l10.93-20,20,10.93-10.94,20ZM289,280.2,269.17,269l11.23-19.81,19.81,11.23Zm-4.8-206.95,10.94-20,20,10.93-10.93,20Zm44.43,229.41L308.8,291.43,320,271.62l19.81,11.23ZM327.22,96.79l10.93-20,20,10.94-10.94,20Zm41,228.34L348.42,313.9l11.23-19.82,19.81,11.23Zm-1.06-206.47,10.94-20,20,10.93-10.93,20Zm40.69,228.93L388,336.36l11.24-19.81,19.81,11.23Zm-.73-207.07,10.93-20,20,10.93-10.93,20Zm40.35,229.53-19.81-11.23L438.9,339l19.81,11.23ZM297.7,518.5,286,499l19.55-11.68,11.68,19.55Zm39.1-23.37-11.68-19.54,19.55-11.69,11.68,19.55ZM378.91,470l-11.68-19.55,19.54-11.68,11.69,19.55Zm47-54.6,11.69,19.55L418,446.61l-11.69-19.55ZM438.06,637l-21.82-13.78,18.13-10.33,11.27,19.79Zm7.36-233.32L465,392l11.68,19.55L457.1,423.24Zm23.05,216L457.2,599.9,477,588.62l11.27,19.79Zm16-239.37,19.55-11.68,11.68,19.55L496.2,399.87Zm23.53,216.82-11.27-19.79,19.79-11.27,11.27,19.79ZM523.62,357l19.55-11.69,11.68,19.55L535.3,376.51Zm24,217.64-11.27-19.79,19.79-11.27,11.27,19.79Zm15.09-241,19.55-11.68L594,341.46,574.4,353.14Zm24.49,218.46-11.27-19.79L595.73,521,607,540.78Zm14.61-241.82,19.54-11.69,11.69,19.55L613.5,329.77Zm25,219.28-11.28-19.79,19.79-11.27,11.28,19.79Zm14.12-242.65,19.55-11.68,11.69,19.55L652.6,306.41Z"/></svg>